<svg xmlns="http://www.w3.org/2000/svg" xmlns:xlink="http://www.w3.org/1999/xlink" width="87.974" height="58.52" viewBox="0 0 87.974 58.52">
  <defs>
    <clipPath id="clip-path">
      <rect id="Rectángulo_8731" data-name="Rectángulo 8731" width="87.973" height="58.519" fill="#fff"/>
    </clipPath>
  </defs>
  <g id="Grupo_15213" data-name="Grupo 15213" clip-path="url(#clip-path)">
    <path id="Trazado_52458" data-name="Trazado 52458" d="M77.674,25.159c-.339,1.432-1.436,2.4-2.45,2.16S73.66,25.726,74,24.294s1.436-2.4,2.45-2.156S78.013,23.727,77.674,25.159Z" fill="#39a8df"/>
    <path id="Trazado_52459" data-name="Trazado 52459" d="M6.579,13.113h9.07v2.4H9.7v2.615h5.23v2.441H9.7v5.015H6.579Z" fill="#485665"/>
    <path id="Trazado_52460" data-name="Trazado 52460" d="M16.784,20.814v-7.73H19.9v7.44A2.306,2.306,0,0,0,22.515,23.1a2.307,2.307,0,0,0,2.615-2.574v-7.44h3.12v7.73c0,3.219-2.268,4.941-5.735,4.941S16.784,24.033,16.784,20.814Z" fill="#485665"/>
    <path id="Trazado_52461" data-name="Trazado 52461" d="M30.129,13.084h3.12V23.16h5.888v2.4H30.129Z" fill="#485665"/>
    <path id="Trazado_52462" data-name="Trazado 52462" d="M40.337,13.084h3.12V23.16h5.888v2.4H40.337Z" fill="#485665"/>
    <path id="Trazado_52463" data-name="Trazado 52463" d="M50.819,15.484H47.157v-2.4H57.6v2.4H53.939V25.56h-3.12Z" fill="#485665"/>
    <path id="Trazado_52464" data-name="Trazado 52464" d="M61.921,13.084H58.8V25.56h3.12Z" fill="#485665"/>
    <path id="Trazado_52465" data-name="Trazado 52465" d="M6.579,28.217h9.07v2.4H9.7v2.615h5.23v2.441H9.7V40.7H6.579Z" fill="#485665"/>
    <path id="Trazado_52466" data-name="Trazado 52466" d="M15.658,34.481c0-4.61,2.148-6.488,6.219-6.488,4.047,0,6.219,1.879,6.219,6.488,0,4.378-2.168,6.373-6.219,6.373C17.806,40.858,15.658,38.864,15.658,34.481Zm9.24,0c0-2.789-.931-3.815-3.021-3.815-2.115,0-3.041,1.026-3.041,3.815,0,2.557.927,3.72,3.041,3.72C23.967,38.206,24.9,37.043,24.9,34.481Z" fill="#485665"/>
    <path id="Trazado_52467" data-name="Trazado 52467" d="M29.45,28.188h6.24c2.942,0,4.3,1.688,4.3,4.283a3.79,3.79,0,0,1-2.383,3.621,2.825,2.825,0,0,1,.794,1.2l1.473,3.368H36.621l-1.395-3.178a1.128,1.128,0,0,0-1.221-.774H32.574v3.952h-3.12V28.188Zm5.425,6.124a1.694,1.694,0,0,0,1.937-1.841c0-1.241-.6-1.879-1.8-1.879H32.566v3.72Z" fill="#485665"/>
    <path id="Trazado_52468" data-name="Trazado 52468" d="M40.9,34.523c0-4.167,2.226-6.53,6.683-6.53a10.8,10.8,0,0,1,3.778.641v2.731a9.059,9.059,0,0,0-3.542-.7c-2.6,0-3.741,1.2-3.741,3.857,0,2.537,1.279,3.683,3.778,3.683a9.17,9.17,0,0,0,3.526-.679v2.752a11.3,11.3,0,0,1-3.778.579C43.242,40.858,40.9,38.5,40.9,34.523Z" fill="#485665"/>
    <path id="Trazado_52469" data-name="Trazado 52469" d="M52.966,28.188h9.207v2.4H56.09v2.615h5.363v2.437H56.09v2.619h6.083v2.4H52.966Z" fill="#485665"/>
    <path id="Trazado_52470" data-name="Trazado 52470" d="M82.958,20.545h4.3V18.1H82.114c.43.161,1.088.658.881,2.2C82.987,20.371,82.971,20.458,82.958,20.545Z" fill="#485665"/>
    <path id="Trazado_52471" data-name="Trazado 52471" d="M81.58,25.56h6.389v-2.4H82.325C82.127,23.876,81.878,24.683,81.58,25.56Z" fill="#485665"/>
    <path id="Trazado_52472" data-name="Trazado 52472" d="M78.771,13.084v9.679c.389-1.084.749-2.2.956-2.83l.128-.393a2.011,2.011,0,0,1,2.036-1.494V15.488h6.083v-2.4h-9.2Z" fill="#485665"/>
    <path id="Trazado_52473" data-name="Trazado 52473" d="M67.015,18.393l2.479,5.036h1.721l2.462-5.036V22.63a3.063,3.063,0,0,1,2.458-1.51,2.393,2.393,0,0,1,.542.062c.041.008.079.029.12.041V13.084H73.735L70.366,20l-3.389-6.915H63.895V25.56h3.12Z" fill="#485665"/>
    <path id="Trazado_52474" data-name="Trazado 52474" d="M26.185,11.475a74.93,74.93,0,0,1,6.8-3.273C53.347-.372,73.677,1.726,73.677,11.475H76.8c0-12.037-20.574-15.637-44.268-5.8a74.173,74.173,0,0,0-11.144,5.8Z" fill="#39a8df"/>
    <path id="Trazado_52475" data-name="Trazado 52475" d="M80.782,19.846c-.286.865-1.246,3.919-1.974,5.466-1.564,3.339-2.446,3.273-6.914,4.428s-6.331,4.8-7.258,6.641-.05,3.083.993,1.452a17.549,17.549,0,0,1,3.728-4.539c1.415-.989,3.265-1.659,1.452,1.837-1.9,3.658-5.818,8.214-12.468,12.075a92.373,92.373,0,0,1-10.08,4.539c-20.5,7.771-40.333,5.288-45.075-5.963C1.3,41.31,2.081,36.1,4.945,30.857V26.694C.273,33.555-1.332,40.652,1.184,46.623c5.16,12.248,25.767,15.414,47.173,7.738v0c5.71-2.036,20.471-7.726,27.741-19.08a44.786,44.786,0,0,0,5.93-15.112C82.271,18.34,81.063,18.981,80.782,19.846Z" fill="#39a8df"/>
  </g>
</svg>
