<svg xmlns="http://www.w3.org/2000/svg" xmlns:xlink="http://www.w3.org/1999/xlink" width="40.36" height="54.42" viewBox="0 0 40.36 54.42">
  <defs>
    <clipPath id="clip-path">
      <rect id="Rectángulo_8728" data-name="Rectángulo 8728" width="40.36" height="54.42" transform="translate(698 188)" fill="#fff"/>
    </clipPath>
  </defs>
  <g id="Grupo_15202" data-name="Grupo 15202" transform="translate(-698 -188)" clip-path="url(#clip-path)">
    <path id="Trazado_52430" data-name="Trazado 52430" d="M725.21,233.48H711.15a1.41,1.41,0,1,1,0-2.82h14.06a1.41,1.41,0,0,1,0,2.82Z" fill="#495665"/>
    <path id="Trazado_52431" data-name="Trazado 52431" d="M725.21,233.98H711.15a1.91,1.91,0,1,1,0-3.82h14.06a1.91,1.91,0,0,1,0,3.82Zm-14.06-2.81a.91.91,0,1,0,0,1.82h14.06a.91.91,0,0,0,0-1.82Z" fill="#495665"/>
    <path id="Trazado_52432" data-name="Trazado 52432" d="M722.4,241.92h-8.43c-1.97,0-4.22-1.69-4.22-5.06v-5.9a9.794,9.794,0,0,0-3.65-7.31,19.44,19.44,0,0,1-7.6-15.75,20.005,20.005,0,0,1,19.4-19.4,19.667,19.667,0,0,1,19.96,19.68,18.9,18.9,0,0,1-7.31,15.18,10.272,10.272,0,0,0-3.94,7.87v6.47A4.319,4.319,0,0,1,722.4,241.92Zm-4.22-50.61a17.241,17.241,0,0,0-16.87,16.59,16.51,16.51,0,0,0,6.47,13.49,12.254,12.254,0,0,1,4.78,9.56v5.9c0,.56,0,2.25,1.41,2.25h8.43a1.333,1.333,0,0,0,1.41-1.41v-6.47a13.676,13.676,0,0,1,5.06-10.12,16.369,16.369,0,0,0,6.18-12.93,16.813,16.813,0,0,0-5.06-12.09A16.631,16.631,0,0,0,718.18,191.31Z" fill="#495665"/>
    <path id="Trazado_52433" data-name="Trazado 52433" d="M722.4,242.42h-8.43c-2.29,0-4.72-1.95-4.72-5.56v-5.9a9.182,9.182,0,0,0-3.48-6.93A20,20,0,0,1,698,207.9,20.439,20.439,0,0,1,717.88,188a20.156,20.156,0,0,1,14.42,5.77,20.6,20.6,0,0,1,6.05,14.41,19.412,19.412,0,0,1-7.5,15.58,9.7,9.7,0,0,0-3.74,7.47v6.47A4.841,4.841,0,0,1,722.4,242.42ZM717.9,189A19.436,19.436,0,0,0,699,207.91a19.028,19.028,0,0,0,7.4,15.34,10.212,10.212,0,0,1,3.85,7.7v5.9c0,2.96,1.92,4.56,3.72,4.56h8.43a3.82,3.82,0,0,0,3.72-3.72v-6.47a10.729,10.729,0,0,1,4.13-8.27,18.408,18.408,0,0,0,7.12-14.79,19.549,19.549,0,0,0-5.76-13.7A19.242,19.242,0,0,0,717.9,189Zm4.5,50.6h-8.43c-.87,0-1.91-.48-1.91-2.75v-5.9a11.773,11.773,0,0,0-4.6-9.17,16.893,16.893,0,0,1-6.65-13.88c.29-9.27,8.24-17.09,17.37-17.09a17.021,17.021,0,0,1,12.16,4.93,17.273,17.273,0,0,1,5.21,12.44,16.79,16.79,0,0,1-6.38,13.33,13.2,13.2,0,0,0-4.87,9.73v6.47A1.814,1.814,0,0,1,722.4,239.6Zm-4.22-47.79c-8.6,0-16.1,7.37-16.37,16.1a15.917,15.917,0,0,0,6.26,13.08,12.791,12.791,0,0,1,4.98,9.96v5.9c0,1.54.46,1.75.91,1.75h8.43a.836.836,0,0,0,.91-.91v-6.47a14.275,14.275,0,0,1,5.24-10.51,15.8,15.8,0,0,0,6-12.55,16.336,16.336,0,0,0-4.91-11.74A16.113,16.113,0,0,0,718.18,191.81Z" fill="#495665"/>
    <path id="Trazado_52434" data-name="Trazado 52434" d="M714.18,213.27a1.1,1.1,0,0,1-.67-.25l-5.16-4.08a1.453,1.453,0,0,1-.33-.83,1.1,1.1,0,0,1,.33-.75l5.16-4.08a1.011,1.011,0,0,1,1.25,1.59l-4.16,3.33,4.16,3.33a1.044,1.044,0,0,1,.17,1.42A.93.93,0,0,1,714.18,213.27Z" fill="#f9c22b"/>
    <path id="Trazado_52435" data-name="Trazado 52435" d="M723.09,213.27a1.1,1.1,0,0,1-.75-.33,1.045,1.045,0,0,1,.17-1.42l4.16-3.33-4.16-3.33a1.011,1.011,0,0,1,1.25-1.59l5.16,4.08a.906.906,0,0,1,.33.75,1.286,1.286,0,0,1-.33.75l-5.16,4.08A.858.858,0,0,1,723.09,213.27Z" fill="#f9c22b"/>
    <path id="Trazado_52436" data-name="Trazado 52436" d="M716.68,216.35h-.25a.989.989,0,0,1-.75-1.25l3.58-14.23a1.031,1.031,0,1,1,2,.5l-3.58,14.23A1.174,1.174,0,0,1,716.68,216.35Z" fill="#f9c22b"/>
  </g>
</svg>
