<svg xmlns="http://www.w3.org/2000/svg" xmlns:xlink="http://www.w3.org/1999/xlink" width="60" height="60" viewBox="0 0 60 60">
  <defs>
    <clipPath id="clip-path">
      <path id="Trazado_52392" data-name="Trazado 52392" d="M693,0h60V60H693Z" fill="#fff"/>
    </clipPath>
    <clipPath id="clip-path-2">
      <rect id="Rectángulo_8724" data-name="Rectángulo 8724" width="45.867" height="42.963" transform="translate(700 9.741)" fill="#fff"/>
    </clipPath>
  </defs>
  <g id="Grupo_15192" data-name="Grupo 15192" transform="translate(-693)" clip-path="url(#clip-path)">
    <g id="Grupo_15191" data-name="Grupo 15191" clip-path="url(#clip-path-2)">
      <path id="Trazado_52389" data-name="Trazado 52389" d="M744.3,9.741H701.567A1.54,1.54,0,0,0,700,11.316V51.128a1.585,1.585,0,0,0,1.567,1.575H744.3a1.586,1.586,0,0,0,1.567-1.575V11.316A1.54,1.54,0,0,0,744.3,9.741Zm-1.567,3.151v6.444h-39.6V12.891Zm-39.6,36.662V22.486h39.6V49.553Z" fill="#495766"/>
      <path id="Trazado_52390" data-name="Trazado 52390" d="M731.11,33.929c-.285-.043-.57-.086-.862-.122a8.027,8.027,0,0,0-.584-1.425c.178-.236.356-.473.527-.7a1.323,1.323,0,0,0-.128-1.7l-1.126-1.131a1.3,1.3,0,0,0-1.688-.129c-.228.172-.463.351-.7.53a7.183,7.183,0,0,0-1.417-.587c-.035-.294-.078-.587-.121-.866a1.31,1.31,0,0,0-1.282-1.11h-1.6a1.309,1.309,0,0,0-1.282,1.11c-.043.286-.086.573-.121.866a7.888,7.888,0,0,0-1.418.587c-.235-.179-.47-.358-.7-.53a1.3,1.3,0,0,0-1.688.129L715.8,29.983a1.319,1.319,0,0,0-.128,1.7c.171.229.349.465.527.7a7.283,7.283,0,0,0-.584,1.425c-.292.036-.584.079-.862.122a1.312,1.312,0,0,0-1.1,1.289v1.6a1.312,1.312,0,0,0,1.1,1.289c.285.043.57.086.862.122a7.952,7.952,0,0,0,.584,1.425c-.178.236-.356.473-.527.7a1.32,1.32,0,0,0,.128,1.7l1.125,1.131a1.3,1.3,0,0,0,1.688.129c.228-.172.463-.351.7-.53a7.229,7.229,0,0,0,1.418.587c.035.293.078.587.121.866a1.309,1.309,0,0,0,1.282,1.11h1.6a1.31,1.31,0,0,0,1.282-1.11c.043-.286.086-.573.121-.866a7.856,7.856,0,0,0,1.417-.587c.235.179.47.358.7.53a1.3,1.3,0,0,0,1.688-.129l1.126-1.131a1.322,1.322,0,0,0,.128-1.7c-.171-.229-.349-.465-.527-.7a7.349,7.349,0,0,0,.584-1.425c.292-.036.584-.079.862-.122a1.313,1.313,0,0,0,1.1-1.289v-1.6A1.306,1.306,0,0,0,731.11,33.929Zm-.449,2.671-.784.107a1.292,1.292,0,0,0-1.082.945,6.388,6.388,0,0,1-.57,1.389,1.309,1.309,0,0,0,.1,1.439c.164.208.32.423.477.63l-.812.816c-.206-.158-.42-.315-.627-.48a1.289,1.289,0,0,0-1.431-.1,5.711,5.711,0,0,1-1.382.573,1.294,1.294,0,0,0-.94,1.088c-.036.265-.071.53-.107.788h-1.154c-.035-.258-.071-.523-.106-.788a1.3,1.3,0,0,0-.941-1.088,6.462,6.462,0,0,1-1.381-.573,1.291,1.291,0,0,0-1.432.1c-.206.165-.42.322-.627.48l-.812-.816c.157-.208.314-.422.478-.63a1.308,1.308,0,0,0,.1-1.439,5.757,5.757,0,0,1-.569-1.389,1.293,1.293,0,0,0-1.083-.945l-.783-.107V35.44l.783-.107a1.293,1.293,0,0,0,1.083-.945A6.538,6.538,0,0,1,717.627,33a1.309,1.309,0,0,0-.1-1.439c-.164-.208-.321-.422-.478-.63l.812-.816c.207.157.421.315.627.48a1.29,1.29,0,0,0,1.432.1,5.687,5.687,0,0,1,1.381-.573,1.3,1.3,0,0,0,.941-1.088c.035-.265.071-.53.106-.788H723.5c.036.258.071.523.107.788a1.294,1.294,0,0,0,.94,1.088,6.492,6.492,0,0,1,1.382.573,1.289,1.289,0,0,0,1.431-.1c.207-.165.421-.322.627-.48l.812.816c-.157.208-.313.423-.477.63a1.308,1.308,0,0,0-.1,1.439,5.762,5.762,0,0,1,.57,1.389,1.292,1.292,0,0,0,1.082.945l.784.107Z" fill="#f9c22b"/>
      <path id="Trazado_52391" data-name="Trazado 52391" d="M722.933,32.69a3.33,3.33,0,1,0,3.312,3.33A3.328,3.328,0,0,0,722.933,32.69Zm0,5.177a1.847,1.847,0,1,1,1.838-1.847A1.847,1.847,0,0,1,722.933,37.867Z" fill="#f9c22b"/>
    </g>
  </g>
</svg>
