<svg xmlns="http://www.w3.org/2000/svg" xmlns:xlink="http://www.w3.org/1999/xlink" width="60" height="60" viewBox="0 0 60 60">
  <defs>
    <clipPath id="clip-path">
      <rect id="Rectángulo_8719" data-name="Rectángulo 8719" width="60" height="60" fill="#fff"/>
    </clipPath>
  </defs>
  <g id="Grupo_15184" data-name="Grupo 15184" clip-path="url(#clip-path)">
    <path id="Trazado_52376" data-name="Trazado 52376" d="M39.6.857H18.257a7.208,7.208,0,0,0-7.114,7.114V52.8A7.226,7.226,0,0,0,18.257,60H39.514a7.152,7.152,0,0,0,7.114-7.114V7.971A7.024,7.024,0,0,0,39.6.857ZM18.257,5.143H39.514a2.854,2.854,0,0,1,2.829,2.829V9.943H15.429V7.971A2.854,2.854,0,0,1,18.257,5.143Zm24.172,9.171V44.4h-27V14.314ZM39.6,55.714H18.257a2.854,2.854,0,0,1-2.828-2.828V48.771h27v4.114A2.854,2.854,0,0,1,39.6,55.714Z" fill="#485665"/>
    <path id="Trazado_52377" data-name="Trazado 52377" d="M24.343,35.657a1.14,1.14,0,0,1-.686-.257l-5.314-4.2A1.522,1.522,0,0,1,18,30.343a1.086,1.086,0,0,1,.343-.771l5.314-4.2A1.037,1.037,0,0,1,24.943,27l-4.286,3.429,4.286,3.428a1.07,1.07,0,0,1,.171,1.457A.941.941,0,0,1,24.343,35.657Z" fill="#f9c228"/>
    <path id="Trazado_52378" data-name="Trazado 52378" d="M33.514,35.657a1.086,1.086,0,0,1-.771-.343,1.07,1.07,0,0,1,.171-1.457L37.2,30.428,32.914,27A1.037,1.037,0,0,1,34.2,25.371l5.314,4.2a.931.931,0,0,1,.343.771,1.277,1.277,0,0,1-.343.771l-5.314,4.2A.885.885,0,0,1,33.514,35.657Z" fill="#f9c228"/>
    <path id="Trazado_52379" data-name="Trazado 52379" d="M26.914,38.828h-.257a1.015,1.015,0,0,1-.771-1.286l3.686-14.657a1.06,1.06,0,0,1,2.057.514L27.943,38.057A1.2,1.2,0,0,1,26.914,38.828Z" fill="#f9c228"/>
  </g>
</svg>
