<svg xmlns="http://www.w3.org/2000/svg" xmlns:xlink="http://www.w3.org/1999/xlink" width="60" height="60" viewBox="0 0 60 60">
  <defs>
    <clipPath id="clip-path">
      <path id="Trazado_52429" data-name="Trazado 52429" d="M529,185h60v60H529Z" fill="#fff"/>
    </clipPath>
    <clipPath id="clip-path-2">
      <rect id="Rectángulo_8727" data-name="Rectángulo 8727" width="44" height="50" transform="translate(536 190)" fill="#fff"/>
    </clipPath>
  </defs>
  <g id="Grupo_15201" data-name="Grupo 15201" transform="translate(-529 -185)" clip-path="url(#clip-path)">
    <g id="Grupo_15200" data-name="Grupo 15200" clip-path="url(#clip-path-2)">
      <path id="Trazado_52422" data-name="Trazado 52422" d="M557.877,240a2.11,2.11,0,0,1-1.051-.277l-19.758-11.214A2.089,2.089,0,0,1,536,226.684v-22.7a2.1,2.1,0,0,1,1.009-1.79l19.46-11.887a2.139,2.139,0,0,1,2.205-.016l20.292,12.062a2.1,2.1,0,0,1,1.026,1.85l-.509,22.192a2.1,2.1,0,0,1-1.035,1.757l-19.477,11.55A2.2,2.2,0,0,1,557.877,240ZM540.24,225.465l17.62,10,17.417-10.323.458-19.8L557.6,194.564l-17.357,10.6Z" fill="#495665"/>
      <path id="Trazado_52423" data-name="Trazado 52423" d="M570.054,210.419a2.133,2.133,0,0,1-1.849-1.068,2.1,2.1,0,0,1,.806-2.867l7.088-3.959a2.137,2.137,0,0,1,2.892.8,2.1,2.1,0,0,1-.806,2.866l-7.088,3.96A2.222,2.222,0,0,1,570.054,210.419Z" fill="#495665"/>
      <path id="Trazado_52424" data-name="Trazado 52424" d="M546.158,210.864a2.031,2.031,0,0,1-1.085-.3l-8.038-4.774a2.1,2.1,0,0,1-.73-2.884,2.129,2.129,0,0,1,2.909-.723l8.038,4.775a2.094,2.094,0,0,1,.73,2.883A2.117,2.117,0,0,1,546.158,210.864Z" fill="#495665"/>
      <path id="Trazado_52425" data-name="Trazado 52425" d="M557.886,240h-.026a2.111,2.111,0,0,1-2.094-2.127l.118-9.86a2.12,2.12,0,0,1,4.24.05l-.127,9.86A2.105,2.105,0,0,1,557.886,240Z" fill="#495665"/>
      <path id="Trazado_52426" data-name="Trazado 52426" d="M558,214.983l8.87-5.59-8.87-5.4-8.937,5.5Z" fill="#f9c229"/>
      <path id="Trazado_52427" data-name="Trazado 52427" d="M548.253,211.553l8.174,5.229v8.373l-8.174-4.414Z" fill="#f9c229"/>
      <path id="Trazado_52428" data-name="Trazado 52428" d="M558.878,216.69l8.36-5.137v9.1l-8.36,4.96Z" fill="#f9c229"/>
    </g>
  </g>
</svg>
