<svg xmlns="http://www.w3.org/2000/svg" xmlns:xlink="http://www.w3.org/1999/xlink" width="24" height="24" viewBox="0 0 24 24">
  <defs>
    <clipPath id="clip-path">
      <rect id="Rectángulo_8729" data-name="Rectángulo 8729" width="24" height="24" transform="translate(147 78)" fill="#fff"/>
    </clipPath>
  </defs>
  <g id="Grupo_15211" data-name="Grupo 15211" transform="translate(-147 -78)" clip-path="url(#clip-path)">
    <path id="Trazado_52455" data-name="Trazado 52455" d="M159,78.5a11.767,11.767,0,0,0-3.795,22.98c.6.111.82-.254.82-.567,0-.28-.01-1.022-.015-2.005-3.338.711-4.042-1.582-4.042-1.582a3.143,3.143,0,0,0-1.335-1.725c-1.087-.731.084-.716.084-.716a2.51,2.51,0,0,1,1.838,1.215,2.584,2.584,0,0,0,3.5.981,2.5,2.5,0,0,1,.76-1.577c-2.665-.295-5.466-1.309-5.466-5.827a4.505,4.505,0,0,1,1.235-3.164,4.126,4.126,0,0,1,.105-3.121s1-.316,3.3,1.209a11.506,11.506,0,0,1,6,0c2.28-1.525,3.285-1.209,3.285-1.209a4.24,4.24,0,0,1,.12,3.121,4.523,4.523,0,0,1,1.23,3.164c0,4.53-2.805,5.527-5.475,5.817a2.8,2.8,0,0,1,.81,2.182c0,1.578-.015,2.846-.015,3.229,0,.309.21.678.825.56A11.776,11.776,0,0,0,171,90.292,11.9,11.9,0,0,0,159,78.5Z" fill="#485665"/>
  </g>
</svg>
