<svg xmlns="http://www.w3.org/2000/svg" width="24" height="24" viewBox="0 0 24 24">
  <path id="Trazado_52453" data-name="Trazado 52453" d="M159,0a12,12,0,1,0,12,12A12,12,0,0,0,159,0Zm-3.487,18.141H152.59V9.348h2.923Zm-1.461-9.993h-.019a1.669,1.669,0,1,1,.019,0Zm12,9.993h-2.922v-4.7c0-1.182-.423-1.988-1.481-1.988a1.6,1.6,0,0,0-1.5,1.069,2.007,2.007,0,0,0-.1.713v4.91H157.13s.039-7.968,0-8.793h2.923v1.245a2.9,2.9,0,0,1,2.633-1.451c1.923,0,3.365,1.257,3.365,3.957Z" transform="translate(-147)" fill="#485665"/>
</svg>
