<svg xmlns="http://www.w3.org/2000/svg" width="25" height="20.313" viewBox="0 0 25 20.313">
  <path id="Trazado_52454" data-name="Trazado 52454" d="M171.912,163.547a2.879,2.879,0,0,1,.049.635,14.568,14.568,0,0,1-.977,5.175,16.365,16.365,0,0,1-2.783,4.688,13.055,13.055,0,0,1-4.59,3.418,14.625,14.625,0,0,1-6.25,1.318,14.225,14.225,0,0,1-7.861-2.3q.537.05,1.221.049a10.163,10.163,0,0,0,6.4-2.2,4.953,4.953,0,0,1-3.027-.977,5.293,5.293,0,0,1-1.758-2.539,9.224,9.224,0,0,0,.928.049,6.557,6.557,0,0,0,1.367-.146,4.994,4.994,0,0,1-2.1-.977,5.441,5.441,0,0,1-1.465-1.758,5.062,5.062,0,0,1-.537-2.295v-.1a4.828,4.828,0,0,0,2.3.683,5.089,5.089,0,0,1-1.562-6.885,14.206,14.206,0,0,0,4.638,3.809,14.377,14.377,0,0,0,5.909,1.563,7.141,7.141,0,0,1-.1-1.172,5.016,5.016,0,0,1,1.465-3.614,5.133,5.133,0,0,1,7.373.1,10.428,10.428,0,0,0,3.271-1.221,5.08,5.08,0,0,1-2.246,2.832,10.976,10.976,0,0,0,2.93-.83A11.271,11.271,0,0,1,171.912,163.547Z" transform="translate(-149.5 -158.469)" fill="#485665"/>
</svg>
