<svg xmlns="http://www.w3.org/2000/svg" xmlns:xlink="http://www.w3.org/1999/xlink" width="60" height="60" viewBox="0 0 60 60">
  <defs>
    <clipPath id="clip-path">
      <path id="Trazado_52397" data-name="Trazado 52397" d="M845,0h60V60H845Z" fill="#fff"/>
    </clipPath>
  </defs>
  <g id="Grupo_15193" data-name="Grupo 15193" transform="translate(-845)" clip-path="url(#clip-path)">
    <path id="Trazado_52393" data-name="Trazado 52393" d="M893.568,48H856.432A7.45,7.45,0,0,1,849,40.541V17.456A7.45,7.45,0,0,1,856.432,10h37.136A7.45,7.45,0,0,1,901,17.456V40.532A7.457,7.457,0,0,1,893.568,48ZM856.432,14.375a3.08,3.08,0,0,0-3.07,3.08V40.532a3.08,3.08,0,0,0,3.07,3.08h37.136a3.08,3.08,0,0,0,3.07-3.08V17.456a3.08,3.08,0,0,0-3.07-3.08Z" fill="#495665"/>
    <path id="Trazado_52394" data-name="Trazado 52394" d="M882.646,54H867.354a2.188,2.188,0,0,1,0-4.375h15.292a2.188,2.188,0,0,1,0,4.375Z" fill="#495665"/>
    <path id="Trazado_52395" data-name="Trazado 52395" d="M885.453,26.727c-.358-.054-.716-.107-1.083-.152a9.9,9.9,0,0,0-.734-1.781c.224-.3.448-.591.663-.877a1.646,1.646,0,0,0-.161-2.121l-1.414-1.414a1.644,1.644,0,0,0-2.121-.161c-.287.215-.582.438-.877.662a9.1,9.1,0,0,0-1.781-.734c-.045-.367-.1-.734-.152-1.083a1.642,1.642,0,0,0-1.611-1.387h-2a1.642,1.642,0,0,0-1.611,1.387c-.054.358-.107.716-.152,1.083a9.952,9.952,0,0,0-1.781.734c-.295-.224-.591-.447-.877-.662a1.645,1.645,0,0,0-2.121.161L866.222,21.8a1.645,1.645,0,0,0-.161,2.121c.215.286.439.582.662.877a9.113,9.113,0,0,0-.733,1.781c-.367.045-.734.1-1.083.152a1.642,1.642,0,0,0-1.387,1.611v2a1.642,1.642,0,0,0,1.387,1.611c.358.054.716.107,1.083.152a9.965,9.965,0,0,0,.733,1.781c-.223.3-.447.591-.662.877a1.646,1.646,0,0,0,.161,2.121l1.414,1.414a1.644,1.644,0,0,0,2.121.161c.286-.215.582-.438.877-.662a9.1,9.1,0,0,0,1.781.734c.045.367.1.734.152,1.083A1.642,1.642,0,0,0,874.178,41h2a1.642,1.642,0,0,0,1.611-1.387c.054-.358.107-.716.152-1.083a9.951,9.951,0,0,0,1.781-.734c.295.224.59.447.877.662a1.645,1.645,0,0,0,2.121-.161l1.414-1.414a1.645,1.645,0,0,0,.161-2.121c-.215-.286-.439-.582-.663-.877a9.057,9.057,0,0,0,.734-1.781c.367-.045.734-.1,1.083-.152a1.642,1.642,0,0,0,1.387-1.611v-2A1.635,1.635,0,0,0,885.453,26.727Zm-.564,3.338-.984.134a1.621,1.621,0,0,0-1.36,1.181,7.981,7.981,0,0,1-.716,1.736,1.628,1.628,0,0,0,.125,1.8c.206.259.4.528.6.787l-1.02,1.02c-.26-.2-.528-.394-.788-.6a1.628,1.628,0,0,0-1.8-.125,7.171,7.171,0,0,1-1.736.716,1.621,1.621,0,0,0-1.181,1.36c-.045.331-.089.662-.134.984h-1.441c-.045-.322-.089-.653-.134-.984a1.621,1.621,0,0,0-1.181-1.36A8.136,8.136,0,0,1,871.4,36a1.629,1.629,0,0,0-1.8.125c-.26.206-.528.4-.788.6L867.8,35.7c.2-.259.394-.528.6-.787a1.627,1.627,0,0,0,.125-1.8,7.179,7.179,0,0,1-.716-1.736,1.621,1.621,0,0,0-1.36-1.181l-.984-.134v-1.45l.984-.134a1.621,1.621,0,0,0,1.36-1.181,8.173,8.173,0,0,1,.716-1.736,1.628,1.628,0,0,0-.125-1.8c-.206-.259-.4-.528-.6-.787l1.02-1.02c.26.2.528.394.788.6a1.628,1.628,0,0,0,1.8.125,7.154,7.154,0,0,1,1.736-.716,1.621,1.621,0,0,0,1.181-1.36c.045-.331.089-.662.134-.984h1.45c.045.322.089.653.134.984a1.62,1.62,0,0,0,1.181,1.36,8.153,8.153,0,0,1,1.736.716,1.629,1.629,0,0,0,1.8-.125c.259-.206.528-.4.787-.6l1.021,1.02c-.2.259-.394.528-.6.787a1.627,1.627,0,0,0-.125,1.8,7.182,7.182,0,0,1,.716,1.736,1.621,1.621,0,0,0,1.36,1.181l.984.134Z" fill="#f9c22b"/>
    <path id="Trazado_52396" data-name="Trazado 52396" d="M875.18,25.179a4.161,4.161,0,1,0,4.161,4.161A4.17,4.17,0,0,0,875.18,25.179Zm0,6.47a2.309,2.309,0,1,1,2.309-2.309A2.314,2.314,0,0,1,875.18,31.649Z" fill="#f9c22b"/>
  </g>
</svg>
