<svg xmlns="http://www.w3.org/2000/svg" xmlns:xlink="http://www.w3.org/1999/xlink" width="60" height="60" viewBox="0 0 60 60">
  <defs>
    <clipPath id="clip-path">
      <rect id="Rectángulo_8719" data-name="Rectángulo 8719" width="60" height="60" fill="#fff"/>
    </clipPath>
  </defs>
  <g id="Grupo_15184" data-name="Grupo 15184" clip-path="url(#clip-path)">
    <path id="Trazado_52376" data-name="Trazado 52376" d="M36.3.857H17.433a6.373,6.373,0,0,0-6.29,6.29V46.781a6.389,6.389,0,0,0,6.29,6.366H36.227a6.323,6.323,0,0,0,6.29-6.29V7.147A6.21,6.21,0,0,0,36.3.857ZM17.433,4.646H36.227a2.523,2.523,0,0,1,2.5,2.5V8.89h-23.8V7.147A2.523,2.523,0,0,1,17.433,4.646ZM38.8,12.755v26.6H14.932v-26.6Zm-2.5,36.6H17.433a2.523,2.523,0,0,1-2.5-2.5V43.219H38.8v3.638A2.523,2.523,0,0,1,36.3,49.357Z" transform="translate(3 2.854)" fill="#485665"/>
    <path id="Trazado_52377" data-name="Trazado 52377" d="M23.608,34.44A1.008,1.008,0,0,1,23,34.213L18.3,30.5a1.346,1.346,0,0,1-.3-.758.961.961,0,0,1,.3-.682L23,25.347a.917.917,0,0,1,1.137,1.44l-3.789,3.031,3.789,3.031a.946.946,0,0,1,.152,1.288A.832.832,0,0,1,23.608,34.44Z" transform="translate(2.205 0.037)" fill="#f9c228"/>
    <path id="Trazado_52378" data-name="Trazado 52378" d="M33.4,34.44a.96.96,0,0,1-.682-.3.946.946,0,0,1,.152-1.288l3.789-3.031L32.87,26.787a.917.917,0,0,1,1.137-1.44l4.7,3.713a.823.823,0,0,1,.3.682,1.129,1.129,0,0,1-.3.682l-4.7,3.713A.783.783,0,0,1,33.4,34.44Z" transform="translate(0.521 0.037)" fill="#f9c228"/>
    <path id="Trazado_52379" data-name="Trazado 52379" d="M26.79,36.886h-.227a.9.9,0,0,1-.682-1.137l3.259-12.959a.937.937,0,0,1,1.819.455L27.7,36.2A1.062,1.062,0,0,1,26.79,36.886Z" transform="translate(1.297 0.395)" fill="#f9c228"/>
  </g>
</svg>
