<svg xmlns="http://www.w3.org/2000/svg" xmlns:xlink="http://www.w3.org/1999/xlink" width="60" height="60" viewBox="0 0 60 60">
  <defs>
    <clipPath id="clip-path">
      <path id="Trazado_52375" data-name="Trazado 52375" d="M350,0h60V60H350Z" fill="#fff"/>
    </clipPath>
  </defs>
  <g id="Grupo_15183" data-name="Grupo 15183" transform="translate(-350)" clip-path="url(#clip-path)">
    <path id="Trazado_52370" data-name="Trazado 52370" d="M399.282,46.86H360.718A7.678,7.678,0,0,1,353,39.235V15.625A7.678,7.678,0,0,1,360.718,8h38.564A7.678,7.678,0,0,1,407,15.625v23.6A7.686,7.686,0,0,1,399.282,46.86ZM360.718,12.475a3.175,3.175,0,0,0-3.189,3.15v23.6a3.175,3.175,0,0,0,3.189,3.15h38.564a3.175,3.175,0,0,0,3.189-3.15v-23.6a3.175,3.175,0,0,0-3.189-3.15Z" fill="#495665"/>
    <path id="Trazado_52371" data-name="Trazado 52371" d="M375.158,32.863a1.214,1.214,0,0,1-.725-.268l-5.616-4.385a1.582,1.582,0,0,1-.363-.9,1.13,1.13,0,0,1,.363-.806l5.616-4.385a1.14,1.14,0,0,1,1.54.179,1.107,1.107,0,0,1-.181,1.521l-4.529,3.58,4.529,3.58a1.107,1.107,0,0,1,.181,1.521A1,1,0,0,1,375.158,32.863Z" fill="#f9c22b"/>
    <path id="Trazado_52372" data-name="Trazado 52372" d="M384.851,32.863a1.154,1.154,0,0,1-.815-.358,1.107,1.107,0,0,1,.181-1.521l4.529-3.58-4.529-3.58a1.107,1.107,0,0,1-.181-1.521,1.14,1.14,0,0,1,1.54-.179l5.616,4.385a.967.967,0,0,1,.363.806,1.327,1.327,0,0,1-.363.806L385.576,32.5A.94.94,0,0,1,384.851,32.863Z" fill="#f9c22b"/>
    <path id="Trazado_52373" data-name="Trazado 52373" d="M377.876,36.174H377.6a1.058,1.058,0,0,1-.815-1.342l3.895-15.3a1.074,1.074,0,0,1,1.359-.805,1.059,1.059,0,0,1,.815,1.342l-3.895,15.3A1.267,1.267,0,0,1,377.876,36.174Z" fill="#f9c22b"/>
    <path id="Trazado_52374" data-name="Trazado 52374" d="M387.94,53H372.06a2.238,2.238,0,1,1,0-4.475h15.88a2.238,2.238,0,1,1,0,4.475Z" fill="#495665"/>
  </g>
</svg>
