<svg xmlns="http://www.w3.org/2000/svg" xmlns:xlink="http://www.w3.org/1999/xlink" width="60" height="60" viewBox="0 0 60 60">
  <defs>
    <clipPath id="clip-path">
      <path id="Trazado_52388" data-name="Trazado 52388" d="M529,0h60V60H529Z" fill="#fff"/>
    </clipPath>
    <clipPath id="clip-path-2">
      <rect id="Rect치ngulo_8723" data-name="Rect치ngulo 8723" width="49.321" height="45" transform="translate(534 8)" fill="#fff"/>
    </clipPath>
    <clipPath id="clip-path-3">
      <rect id="Rect치ngulo_8722" data-name="Rect치ngulo 8722" width="54.353" height="50" transform="translate(528.967 8)" fill="#fff"/>
    </clipPath>
  </defs>
  <g id="Grupo_15190" data-name="Grupo 15190" transform="translate(-529)" clip-path="url(#clip-path)">
    <g id="Grupo_15189" data-name="Grupo 15189" clip-path="url(#clip-path-2)">
      <g id="Grupo_15188" data-name="Grupo 15188" clip-path="url(#clip-path-3)">
        <path id="Trazado_52383" data-name="Trazado 52383" d="M568.9,34.821a2.584,2.584,0,0,0-.722-1.231,6.146,6.146,0,0,0-1.615-1.154,11.7,11.7,0,0,0-2.264-.882c-.086-.026-.079-.065-.066-.117.053-.214.1-.428.138-.648a11.2,11.2,0,0,0,.2-1.679,6.833,6.833,0,0,0-.072-1.361A3.727,3.727,0,0,0,564,26.3a1.953,1.953,0,0,0-.88-.791,2.353,2.353,0,0,0-1.385-.123,5.452,5.452,0,0,0-1.8.693,11.342,11.342,0,0,0-2.173,1.646c-.053.052-.092.065-.144.007-.184-.182-.381-.35-.578-.512A9.5,9.5,0,0,0,554.7,25.74a3.947,3.947,0,0,0-1.89-.369,1.848,1.848,0,0,0-1.136.493,2.619,2.619,0,0,0-.656,1.069,5.806,5.806,0,0,0-.263,1.769c0,.22.007.441.027.661a11.653,11.653,0,0,0,.15,1.18c.053.3.119.6.191.888.013.058,0,.091-.059.1s-.145.039-.223.065a10.173,10.173,0,0,0-2.941,1.355,4,4,0,0,0-1.228,1.27,1.878,1.878,0,0,0-.216,1.452,2.819,2.819,0,0,0,.722,1.212,6.473,6.473,0,0,0,1.779,1.27,11.432,11.432,0,0,0,2.081.817c.065.019.078.039.065.1-.072.272-.131.551-.184.83a10.093,10.093,0,0,0-.177,1.666,6.245,6.245,0,0,0,.072,1.16,3.757,3.757,0,0,0,.453,1.374,1.956,1.956,0,0,0,1.641,1c.1.013.217,0,.322.007a2.185,2.185,0,0,0,.355-.019,5.683,5.683,0,0,0,1.877-.687,11.327,11.327,0,0,0,2.16-1.6c.072-.071.092-.071.164.007a9.492,9.492,0,0,0,.827.719,8.553,8.553,0,0,0,2.278,1.348,2.881,2.881,0,0,0,1.07.233c.046.007.085-.013.131.013h.23a.183.183,0,0,1,.118,0h.059a.055.055,0,0,1,.053-.02,1.945,1.945,0,0,0,.859-.318,2.372,2.372,0,0,0,.834-1.108,5.213,5.213,0,0,0,.341-1.763,8.988,8.988,0,0,0-.059-1.4,11.2,11.2,0,0,0-.269-1.478c-.019-.071,0-.091.066-.11.249-.071.5-.156.748-.246a9.734,9.734,0,0,0,2.252-1.128,4.2,4.2,0,0,0,1.326-1.361A1.846,1.846,0,0,0,568.9,34.821Zm-10.49-6.4a10.922,10.922,0,0,1,1.517-1.219,5.645,5.645,0,0,1,1.871-.868,1.715,1.715,0,0,1,.748-.019.969.969,0,0,1,.65.506,2.954,2.954,0,0,1,.354,1.147,6.886,6.886,0,0,1,.059.83,10.664,10.664,0,0,1-.275,2.243c-.013.058-.027.117-.04.175s-.039.071-.1.058c-.394-.091-.794-.162-1.2-.233s-.788-.123-1.182-.162c-.17-.019-.341-.039-.512-.052a.136.136,0,0,1-.091-.065c-.355-.505-.736-.992-1.136-1.465-.223-.259-.453-.518-.683-.771C558.371,28.482,558.371,28.462,558.41,28.424Zm-5.376,7.992c.007-.013.013-.019.033-.052.413.784.853,1.53,1.326,2.262a.613.613,0,0,1-.269-.013c-.578-.071-1.149-.162-1.72-.279-.046-.007-.079-.013-.059-.078C552.548,37.634,552.778,37.018,553.034,36.415Zm-.276-3.027c-.137-.363-.269-.726-.387-1.1-.026-.078,0-.1.072-.117.473-.1.946-.188,1.425-.253.164-.019.328-.045.518-.071-.472.745-.919,1.484-1.326,2.275C552.955,33.862,552.85,33.622,552.758,33.388Zm.854,1.931a.171.171,0,0,1,0-.168,26.379,26.379,0,0,1,1.943-3.332.23.23,0,0,1,.2-.11c.321-.013.643-.026.965-.045.564-.032,1.135-.02,1.7-.013.4.007.8.039,1.2.052a.223.223,0,0,1,.183.11,29.166,29.166,0,0,1,1.674,2.787c.1.188.191.369.289.557a.121.121,0,0,1,0,.117,29.734,29.734,0,0,1-1.575,2.787c-.132.207-.269.415-.407.622a.117.117,0,0,1-.1.065c-.676.039-1.353.071-2.094.058-.2,0-.466.006-.729,0-.387-.013-.781-.026-1.168-.052a.127.127,0,0,1-.092-.058c-.4-.59-.781-1.186-1.136-1.8C554.157,36.376,553.881,35.851,553.612,35.32Zm8.7,1c.059.136.111.246.157.363q.306.739.571,1.5c.027.078.013.1-.065.117-.519.11-1.044.2-1.569.279a2.788,2.788,0,0,1-.427.045C561.45,37.867,561.889,37.115,562.31,36.325Zm.006-2.249c0,.007-.006.007-.026.026-.414-.765-.847-1.51-1.32-2.243a2.046,2.046,0,0,1,.407.045c.526.078,1.044.169,1.563.279.059.013.079.026.059.091C562.795,32.889,562.572,33.486,562.316,34.076Zm-4.687-4.868c.026-.032.053-.071.1-.019.433.48.854.972,1.247,1.491a.181.181,0,0,1,.027.045c-.88-.032-1.753-.032-2.633,0a.741.741,0,0,1,.125-.194C556.855,30.076,557.235,29.636,557.629,29.208ZM551.912,27.3a1.572,1.572,0,0,1,.446-.765,1.132,1.132,0,0,1,.893-.227,4.772,4.772,0,0,1,1.976.771,11.641,11.641,0,0,1,1.746,1.342c.039.039.033.058,0,.091-.171.188-.342.382-.512.577a18.107,18.107,0,0,0-1.248,1.575.387.387,0,0,1-.321.175c-.63.052-1.254.143-1.878.253-.282.052-.571.11-.853.169-.066.013-.079-.013-.092-.058a13.026,13.026,0,0,1-.276-1.5,7.931,7.931,0,0,1-.052-.966A4.449,4.449,0,0,1,551.912,27.3ZM551.5,37.763c-.026.084-.059.169-.079.253-.013.052-.033.065-.085.052a8.985,8.985,0,0,1-3.125-1.53,2.1,2.1,0,0,1-.755-.992,1.082,1.082,0,0,1-.078-.389,1.243,1.243,0,0,1,.242-.622,3.99,3.99,0,0,1,1.208-1.05,10.351,10.351,0,0,1,2.521-1.05c.053-.013.072,0,.085.045a21.225,21.225,0,0,0,1.051,2.683.14.14,0,0,1,0,.123A23.9,23.9,0,0,0,551.5,37.763Zm5.494,4.31a9.192,9.192,0,0,1-2.035,1.5,10.078,10.078,0,0,1-1.05.467,1.61,1.61,0,0,1-.683.11,1.789,1.789,0,0,1-.452-.045.969.969,0,0,1-.69-.538,2.911,2.911,0,0,1-.308-1.011,6.069,6.069,0,0,1-.059-.979,9.947,9.947,0,0,1,.236-1.873c.033-.13.059-.266.092-.4.013-.058.039-.084.1-.071.427.1.866.168,1.3.233.328.052.663.091,1,.123l.611.058a.135.135,0,0,1,.092.065c.387.538.794,1.057,1.227,1.562.2.233.407.46.617.687C557.032,42.015,557.032,42.035,556.992,42.074Zm.782-.791c-.053.058-.079.045-.125-.007-.4-.434-.781-.882-1.149-1.348-.046-.058-.085-.11-.138-.181.893.013,1.773.026,2.659-.013a2.412,2.412,0,0,1-.2.285C558.489,40.453,558.135,40.868,557.774,41.283Zm5.724,1.73a1.858,1.858,0,0,1-.624.992.909.909,0,0,1-.545.175,2.48,2.48,0,0,1-1.011-.188,7.507,7.507,0,0,1-2.008-1.173c-.3-.233-.585-.493-.867-.745-.046-.039-.039-.058,0-.1.473-.525.919-1.056,1.339-1.62l.453-.622a.167.167,0,0,1,.145-.078c.551-.045,1.1-.117,1.641-.2.413-.065.82-.143,1.234-.233.072-.02.092.007.111.078a9.815,9.815,0,0,1,.256,1.394c.027.272.046.538.046.81A9.024,9.024,0,0,1,563.5,43.013Zm4.148-7a4.191,4.191,0,0,1-1.07.907,10.211,10.211,0,0,1-2.487,1.089c-.066.02-.1.02-.119-.052a22,22,0,0,0-1.083-2.677.14.14,0,0,1,0-.123,22.134,22.134,0,0,0,.946-2.346c.032-.1.065-.194.1-.3.02-.065.046-.065.1-.045a11.7,11.7,0,0,1,1.477.525,7.211,7.211,0,0,1,1.595.92,2.529,2.529,0,0,1,.788.914.817.817,0,0,1,.085.324A1.362,1.362,0,0,1,567.646,36.013Z" fill="#f9c22b"/>
        <path id="Trazado_52384" data-name="Trazado 52384" d="M562.717,45.451l-.768-.013a3.439,3.439,0,0,1-1.149-.253,8.75,8.75,0,0,1-2.37-1.394c-.2-.162-.459-.369-.709-.609a11.2,11.2,0,0,1-2.074,1.51,5.884,5.884,0,0,1-1.989.726,2.19,2.19,0,0,1-.414.02h-.111a1.682,1.682,0,0,1-.256-.013,2.229,2.229,0,0,1-1.871-1.16,3.957,3.957,0,0,1-.5-1.491,7.725,7.725,0,0,1-.079-1.219,11.609,11.609,0,0,1,.184-1.711c.039-.207.085-.421.131-.629a11.734,11.734,0,0,1-1.93-.771,6.58,6.58,0,0,1-1.864-1.342,3.028,3.028,0,0,1-.8-1.355,2.218,2.218,0,0,1,.25-1.692,4.294,4.294,0,0,1,1.326-1.381,10.283,10.283,0,0,1,3.039-1.4c-.053-.227-.1-.454-.138-.687-.072-.408-.125-.817-.157-1.212-.02-.233-.027-.46-.027-.687a6.042,6.042,0,0,1,.276-1.873,2.887,2.887,0,0,1,.742-1.2,2.248,2.248,0,0,1,1.332-.577,4.122,4.122,0,0,1,2.048.389,9.5,9.5,0,0,1,2.416,1.53c.151.123.3.246.44.376a11.148,11.148,0,0,1,2.081-1.549,5.681,5.681,0,0,1,1.91-.732,2.671,2.671,0,0,1,1.569.143,2.276,2.276,0,0,1,1.031.914,4.2,4.2,0,0,1,.545,1.575,7.15,7.15,0,0,1,.078,1.419,12.109,12.109,0,0,1-.2,1.731c-.026.156-.059.3-.092.454a11.941,11.941,0,0,1,2.114.849,6.455,6.455,0,0,1,1.7,1.218,2.871,2.871,0,0,1,.807,1.387,2.2,2.2,0,0,1-.262,1.594,4.488,4.488,0,0,1-1.425,1.471,9.933,9.933,0,0,1-2.33,1.167c-.184.065-.368.13-.552.188a10.5,10.5,0,0,1,.224,1.3,9.438,9.438,0,0,1,.059,1.452,5.461,5.461,0,0,1-.368,1.873,2.686,2.686,0,0,1-.952,1.251,2.306,2.306,0,0,1-.879.356Zm-.381-.026a.193.193,0,0,0,.059.013Zm-.177-.622h.138a.464.464,0,0,1,.164-.007c.019-.007.046-.007.072-.013a1.594,1.594,0,0,0,.7-.259,2.037,2.037,0,0,0,.722-.966,5.042,5.042,0,0,0,.322-1.659,8.086,8.086,0,0,0-.059-1.348,11.2,11.2,0,0,0-.263-1.439.389.389,0,0,1,.3-.5c.243-.071.486-.149.722-.24a9.4,9.4,0,0,0,2.179-1.089,3.93,3.93,0,0,0,1.228-1.251,1.551,1.551,0,0,0,.19-1.141,2.3,2.3,0,0,0-.637-1.076,5.862,5.862,0,0,0-1.536-1.1,11.868,11.868,0,0,0-2.2-.862.4.4,0,0,1-.289-.506c.053-.207.1-.421.138-.629a10.7,10.7,0,0,0,.191-1.633,6.444,6.444,0,0,0-.073-1.3,3.378,3.378,0,0,0-.452-1.329,1.621,1.621,0,0,0-.736-.661,2.01,2.01,0,0,0-1.194-.1,5.309,5.309,0,0,0-1.694.655,10.781,10.781,0,0,0-2.107,1.6.413.413,0,0,1-.611,0,6.535,6.535,0,0,0-.551-.493,9.077,9.077,0,0,0-2.252-1.432,3.544,3.544,0,0,0-1.726-.344,1.552,1.552,0,0,0-.945.408,2.183,2.183,0,0,0-.565.933,5.191,5.191,0,0,0-.243,1.672c0,.214.013.421.026.635.027.376.079.758.145,1.147.052.292.111.577.184.862a.382.382,0,0,1-.04.318l-.072.117-.19.065c-.059.013-.118.032-.178.052a9.855,9.855,0,0,0-2.875,1.316,3.641,3.641,0,0,0-1.129,1.167,1.569,1.569,0,0,0-.184,1.212,2.417,2.417,0,0,0,.644,1.069,5.924,5.924,0,0,0,1.693,1.206,11.076,11.076,0,0,0,2.022.791.379.379,0,0,1,.289.493c-.072.266-.125.538-.177.81a10.2,10.2,0,0,0-.171,1.614,5.7,5.7,0,0,0,.072,1.1,3.342,3.342,0,0,0,.414,1.257,1.607,1.607,0,0,0,1.372.843c.079.007.125.007.17.007h.138a2.2,2.2,0,0,0,.289-.013,5.261,5.261,0,0,0,1.773-.648,10.612,10.612,0,0,0,2.094-1.556.406.406,0,0,1,.623.013,9.7,9.7,0,0,0,.8.694,8.075,8.075,0,0,0,2.193,1.3,2.522,2.522,0,0,0,.951.214A.944.944,0,0,1,562.159,44.8Zm.079-.3A3.074,3.074,0,0,1,561.2,44.3a7.636,7.636,0,0,1-2.094-1.218c-.269-.207-.518-.428-.768-.655l-.118-.1a.368.368,0,0,1-.026-.557,20.622,20.622,0,0,0,1.319-1.6c.151-.2.3-.408.447-.616a.507.507,0,0,1,.38-.22c.493-.039,1.018-.1,1.615-.2.407-.065.808-.143,1.215-.233a.4.4,0,0,1,.5.317,11.466,11.466,0,0,1,.262,1.433,8.264,8.264,0,0,1,.046.849,7.8,7.8,0,0,1-.164,1.594,2.146,2.146,0,0,1-.729,1.16,1.222,1.222,0,0,1-.748.253C562.3,44.5,562.27,44.5,562.238,44.5ZM558.844,42c.216.194.433.389.663.564a7.053,7.053,0,0,0,1.917,1.121,2.4,2.4,0,0,0,.879.168.546.546,0,0,0,.348-.091,1.544,1.544,0,0,0,.519-.817,7.171,7.171,0,0,0,.144-1.458c0-.22-.013-.473-.039-.771a9.581,9.581,0,0,0-.2-1.134c-.335.071-.676.136-1.018.188-.59.1-1.116.162-1.6.2-.138.194-.276.389-.421.577C559.691,41.011,559.3,41.491,558.844,42Zm-5.705,2.482a2.9,2.9,0,0,1-.407-.045,1.28,1.28,0,0,1-.938-.707,3.338,3.338,0,0,1-.348-1.121,5.446,5.446,0,0,1-.059-1.037,10.448,10.448,0,0,1,.242-1.932l.086-.389a.394.394,0,0,1,.184-.272.417.417,0,0,1,.315-.045c.453.1.9.175,1.273.233.322.052.65.091.978.123l.611.058a.451.451,0,0,1,.328.194c.381.532.788,1.05,1.214,1.543.184.214.381.428.572.642a.385.385,0,0,1,.019.59,9.489,9.489,0,0,1-2.107,1.556,10.046,10.046,0,0,1-1.083.486,2.007,2.007,0,0,1-.821.136C553.192,44.485,553.166,44.485,553.139,44.485Zm.066-.648a1.419,1.419,0,0,0,.584-.091,10.705,10.705,0,0,0,1.011-.454,8.458,8.458,0,0,0,1.779-1.283c-.164-.181-.315-.344-.453-.512-.42-.486-.827-1-1.2-1.523l-.506-.045c-.341-.032-.676-.078-1.017-.13-.322-.052-.7-.11-1.083-.188l-.04.168a9.774,9.774,0,0,0-.229,1.815,4.9,4.9,0,0,0,.052.927,2.552,2.552,0,0,0,.269.9.633.633,0,0,0,.46.376A1.7,1.7,0,0,0,553.205,43.837Zm4.51-2.191a.41.41,0,0,1-.309-.149c-.44-.48-.814-.927-1.162-1.368l-.551-.713.683.013c.892.013,1.759.026,2.645-.013l.578-.02-.276.5a1.539,1.539,0,0,1-.184.259l-.046.065c-.361.473-.735.914-1.063,1.277A.465.465,0,0,1,557.715,41.646Zm-.67-1.562c.21.253.427.512.663.778.21-.24.433-.5.65-.778Zm.906-.946c-.125,0-.249,0-.381-.007h-.728c-.394-.013-.788-.026-1.182-.052a.431.431,0,0,1-.335-.2c-.42-.616-.807-1.225-1.149-1.821-.288-.5-.571-1.031-.853-1.588a.464.464,0,0,1,0-.454,27.471,27.471,0,0,1,1.963-3.37.538.538,0,0,1,.453-.253l.236-.007c.243-.013.486-.019.729-.032.538-.032,1.083-.019,1.608-.013h.118c.276.007.552.02.827.032l.381.02a.532.532,0,0,1,.44.253,30.534,30.534,0,0,1,1.687,2.819l.289.551a.429.429,0,0,1,.006.408,28.365,28.365,0,0,1-1.595,2.813l-.407.622a.439.439,0,0,1-.361.214C559.146,39.105,558.568,39.138,557.951,39.138Zm-.374-.655c.709.013,1.359-.013,1.976-.052l.354-.544a28.894,28.894,0,0,0,1.517-2.664l-.243-.467a29.987,29.987,0,0,0-1.628-2.722l-.335-.019c-.269-.013-.532-.032-.8-.032H558.3c-.512-.007-1.044-.013-1.556.013-.249.013-.492.026-.742.032l-.19.006a26.76,26.76,0,0,0-1.864,3.2c.262.525.531,1.031.807,1.5.322.557.683,1.128,1.07,1.7.348.019.7.032,1.044.045.184.007.361.007.525,0Zm-3.269.48a1.325,1.325,0,0,1-.184-.019c-.63-.078-1.221-.175-1.786-.292l-.144-.032-.131-.149a.364.364,0,0,1-.027-.311c.2-.616.434-1.244.7-1.867l.033-.065.3-.493.289.48c.413.784.84,1.51,1.313,2.236l.243.369-.427.117A.618.618,0,0,1,554.308,38.963Zm-1.556-.894c.335.065.67.117,1,.168-.229-.369-.446-.739-.656-1.121C552.975,37.433,552.864,37.757,552.752,38.068Zm8.258.875h-.052l-.572-.019.3-.473c.473-.739.906-1.484,1.326-2.275l.315-.6.434.985c.216.512.407,1.018.577,1.517a.4.4,0,0,1-.019.343.428.428,0,0,1-.289.194c-.532.11-1.064.207-1.595.279l-.086.013A2.636,2.636,0,0,1,561.01,38.943Zm1.26-1.873q-.324.583-.669,1.147c.341-.052.689-.11,1.03-.181C562.526,37.718,562.4,37.394,562.27,37.07Zm-10.9,1.329a.454.454,0,0,1-.125-.019,9.179,9.179,0,0,1-3.236-1.588,2.454,2.454,0,0,1-.86-1.141,1.49,1.49,0,0,1-.1-.493,1.453,1.453,0,0,1,.3-.8,4.366,4.366,0,0,1,1.307-1.141,10.455,10.455,0,0,1,2.6-1.082.378.378,0,0,1,.493.266,21.4,21.4,0,0,0,1.037,2.638.463.463,0,0,1,0,.4,22.463,22.463,0,0,0-.965,2.431l-.02.058a1.674,1.674,0,0,0-.052.175l-.033.13-.151.117A.39.39,0,0,1,551.367,38.4Zm.046-.648.085.013-.308-.1a24.539,24.539,0,0,1,.958-2.431,23.149,23.149,0,0,1-.952-2.4,9.332,9.332,0,0,0-2.2.946,3.471,3.471,0,0,0-1.109.959.848.848,0,0,0-.184.454.928.928,0,0,0,.066.266,1.809,1.809,0,0,0,.649.843A8.511,8.511,0,0,0,551.413,37.751Zm12.617.6a.4.4,0,0,1-.375-.285,21.219,21.219,0,0,0-1.07-2.638.452.452,0,0,1,0-.4,23.647,23.647,0,0,0,.939-2.314c.033-.091.066-.188.092-.279l.033-.13.151-.117a.429.429,0,0,1,.328-.026,11.327,11.327,0,0,1,1.516.544,7.229,7.229,0,0,1,1.668.966,2.789,2.789,0,0,1,.879,1.037,1.146,1.146,0,0,1,.119.48,1.643,1.643,0,0,1-.407,1.037,4.584,4.584,0,0,1-1.149.979,10.579,10.579,0,0,1-2.567,1.128A.743.743,0,0,1,564.03,38.347Zm-.814-3.131a22.045,22.045,0,0,1,.991,2.418,9.476,9.476,0,0,0,2.186-.985,3.945,3.945,0,0,0,.991-.836.969.969,0,0,0,.263-.661.61.61,0,0,0-.059-.188,2.286,2.286,0,0,0-.69-.8,6.563,6.563,0,0,0-1.523-.875,12.073,12.073,0,0,0-1.208-.447.291.291,0,0,1-.026.071A21.959,21.959,0,0,1,563.216,35.217Zm-10.2-.311-.367-.9c-.073-.175-.138-.337-.2-.506-.138-.369-.276-.739-.394-1.115a.413.413,0,0,1,.026-.344.4.4,0,0,1,.289-.188c.532-.11.985-.194,1.444-.253l1.221-.175-.374.59c-.551.868-.958,1.562-1.313,2.256Zm.046-1.633c.013.026.02.052.033.084.19-.343.4-.7.637-1.089-.309.045-.624.1-.972.168C552.864,32.715,552.962,32.993,553.067,33.272Zm9.157,1.355L562,34.257c-.433-.8-.86-1.53-1.306-2.223l-.309-.473.572-.019a1.688,1.688,0,0,1,.38.032l.086.013c.577.084,1.1.175,1.588.285a.4.4,0,0,1,.276.188l.072.123-.052.2c-.217.655-.44,1.251-.69,1.815l-.019.058Zm-.61-2.359c.217.35.427.713.643,1.1.118-.292.23-.6.342-.92C562.284,32.378,561.962,32.319,561.614,32.268Zm1.621-.668a.681.681,0,0,1-.1-.013c-.387-.084-.781-.162-1.175-.227s-.774-.117-1.168-.162l-.1-.013c-.137-.013-.275-.032-.413-.045a.425.425,0,0,1-.328-.207c-.335-.473-.709-.959-1.116-1.439-.184-.214-.375-.428-.558-.635l-.112-.13a.368.368,0,0,1,.02-.545,11.584,11.584,0,0,1,1.562-1.251,6.025,6.025,0,0,1,1.983-.914,1.989,1.989,0,0,1,.892-.019,1.329,1.329,0,0,1,.867.655,3.39,3.39,0,0,1,.4,1.27,8.658,8.658,0,0,1,.059.868,11.155,11.155,0,0,1-.282,2.314l-.066.3-.144.13A.372.372,0,0,1,563.235,31.6Zm-2.79-1.089c.106.013.217.026.322.032l.092.013c.4.045.8.1,1.2.168.322.052.65.117.965.182a10.137,10.137,0,0,0,.25-2.107,5.941,5.941,0,0,0-.053-.784,2.693,2.693,0,0,0-.315-1.031.656.656,0,0,0-.44-.35,1.407,1.407,0,0,0-.61.019,5.307,5.307,0,0,0-1.759.823,10.571,10.571,0,0,0-1.287,1.018c.177.194.348.389.519.6A17.688,17.688,0,0,1,560.445,30.511Zm-8.317,1.082a.377.377,0,0,1-.38-.311,13.351,13.351,0,0,1-.283-1.536,8.425,8.425,0,0,1-.059-1,4.842,4.842,0,0,1,.191-1.53,1.852,1.852,0,0,1,.545-.914,1.405,1.405,0,0,1,1.142-.3,5.13,5.13,0,0,1,2.107.817,11.52,11.52,0,0,1,1.8,1.38.373.373,0,0,1,.019.545c-.17.188-.341.382-.512.57a18.54,18.54,0,0,0-1.227,1.543.713.713,0,0,1-.558.311c-.585.052-1.188.13-1.845.253-.282.052-.564.1-.847.169A.388.388,0,0,1,552.128,31.593Zm.926-4.965a.706.706,0,0,0-.479.156,1.219,1.219,0,0,0-.348.616,4.393,4.393,0,0,0-.164,1.342,7.1,7.1,0,0,0,.052.933,11.813,11.813,0,0,0,.21,1.225c.2-.039.414-.084.617-.117.683-.123,1.307-.207,1.911-.259.052-.007.052-.007.078-.039a20.078,20.078,0,0,1,1.267-1.6c.118-.13.23-.259.348-.389a10.16,10.16,0,0,0-1.5-1.134,4.472,4.472,0,0,0-1.838-.719A.622.622,0,0,0,553.054,26.629Zm2.862,4.44.138-.441a.809.809,0,0,1,.157-.266c.375-.473.749-.914,1.169-1.374l.1-.11.348-.045.145.143c.512.564.912,1.044,1.26,1.51l.039.058.283.506h-.571c-.906-.032-1.76-.032-2.606,0Zm1.746-.687c.217,0,.44,0,.663.007-.19-.24-.4-.486-.637-.752-.229.253-.439.5-.643.752C557.249,30.381,557.452,30.381,557.662,30.381Z" fill="#f9c22b"/>
        <path id="Trazado_52385" data-name="Trazado 52385" d="M557.474,37.291a1.987,1.987,0,1,1,2.022-1.983A1.99,1.99,0,0,1,557.474,37.291Z" fill="#f9c22b"/>
        <path id="Trazado_52386" data-name="Trazado 52386" d="M557.494,37.615h-.026a2.322,2.322,0,0,1-1.654-.681,2.3,2.3,0,0,1,.026-3.28A2.363,2.363,0,0,1,557.481,33h.013a2.321,2.321,0,0,1,2.324,2.314,2.273,2.273,0,0,1-.7,1.64A2.325,2.325,0,0,1,557.494,37.615Zm-.019-.648h.026a1.7,1.7,0,0,0,1.175-.473,1.634,1.634,0,0,0,.5-1.18,1.678,1.678,0,0,0-1.674-1.666h-.007a1.689,1.689,0,0,0-1.181.473,1.656,1.656,0,0,0,1.162,2.845Z" fill="#f9c22b"/>
        <path id="Trazado_52387" data-name="Trazado 52387" d="M577.85,8H538.464a1.5,1.5,0,0,0-1.444,1.613V50.387A1.549,1.549,0,0,0,538.464,52H577.85a1.549,1.549,0,0,0,1.444-1.613V9.613A1.5,1.5,0,0,0,577.85,8Zm-1.444,3.227v6.6h-36.5v-6.6Zm-36.5,37.547V21.053h36.5v27.72Z" fill="#495766"/>
      </g>
    </g>
  </g>
</svg>
