<svg xmlns="http://www.w3.org/2000/svg" xmlns:xlink="http://www.w3.org/1999/xlink" width="60" height="60" viewBox="0 0 60 60">
  <defs>
    <clipPath id="clip-path">
      <path id="Trazado_52413" data-name="Trazado 52413" d="M171,185h60v60H171Z" fill="#fff"/>
    </clipPath>
    <clipPath id="clip-path-2">
      <rect id="Rectángulo_8726" data-name="Rectángulo 8726" width="45" height="54" transform="translate(178 188)" fill="#fff"/>
    </clipPath>
  </defs>
  <g id="Grupo_15198" data-name="Grupo 15198" transform="translate(-171 -185)" clip-path="url(#clip-path)">
    <g id="Grupo_15197" data-name="Grupo 15197" clip-path="url(#clip-path-2)">
      <path id="Trazado_52411" data-name="Trazado 52411" d="M200.51,242H185.248c-1.807,0-2.419-.607-2.658-2.379-.43-3.271-.928-6.532-1.4-9.794-.679-4.711-1.387-9.423-2.008-14.144-.345-2.645-.727-5.29-1.09-7.935a3.7,3.7,0,0,1,.038-1.8,2.032,2.032,0,0,1,1.989-1.251c2.113-.009,4.226-.028,6.33.019.717.019.9-.237.9-.92a29.826,29.826,0,0,1,.115-4.531,12.663,12.663,0,0,1,7.21-9.879,13.155,13.155,0,0,1,18.875,9.9,32.235,32.235,0,0,1,.125,4.607c0,.645.22.825.841.816,2.037-.029,4.074-.01,6.1-.01,1.826,0,2.572.834,2.343,2.683-.268,2.1-.584,4.19-.88,6.285-.612,4.39-1.205,8.789-1.817,13.178q-.932,6.655-1.874,13.32a2.081,2.081,0,0,1-2.314,1.83Q208.289,242,200.51,242Zm.009-3.877c4.141,0,8.291.009,12.431,0,2.037-.01,1.683.332,1.989-1.745.746-5.128,1.406-10.276,2.113-15.415q.8-5.83,1.655-11.67c.086-.559-.077-.72-.612-.711-1.272.019-2.544.009-3.816,0-.421,0-.6.161-.593.578a12.766,12.766,0,0,1-.009,1.356,1.983,1.983,0,0,1-1.913,1.811,2,2,0,0,1-1.979-1.83,4.842,4.842,0,0,1-.01-.986c.086-.711-.162-.957-.918-.948-5.259.028-10.528.01-15.787.01-1.759,0-1.759,0-1.817,1.706a1.931,1.931,0,0,1-.009.228,2.015,2.015,0,0,1-1.913,1.82,1.989,1.989,0,0,1-1.979-1.83,11.518,11.518,0,0,1-.019-1.289c.019-.436-.144-.645-.612-.635-1.3.018-2.592.009-3.892,0-.488-.01-.593.189-.536.654.507,3.488.985,6.977,1.473,10.475.813,5.831,1.645,11.671,2.429,17.511.095.739.392.938,1.128.938C191.722,238.1,196.12,238.123,200.519,238.123Zm-.009-33.418c2.82,0,5.641.009,8.462,0,.335,0,.784.094.784-.456a18.373,18.373,0,0,0-.373-5.707,9.257,9.257,0,0,0-18,1.242c-.182,1.356-.067,2.721-.134,4.077-.029.673.22.863.879.863C194.925,204.686,197.717,204.705,200.51,204.705Z" fill="#495665"/>
      <path id="Trazado_52412" data-name="Trazado 52412" d="M204.6,220.1a4.284,4.284,0,0,0-3.438-1.654c-1.491,0-2.8.669-2.8,1.863,0,2.005,2.873,2.281,4.289,2.6,2.763.668,4.886,1.721,4.886,4.845,0,3.758-3.471,5.237-6.8,5.237-2.763,0-4.819-.7-6.487-2.949l2.409-1.971a5.6,5.6,0,0,0,4.078,1.971c1.626,0,3.4-.668,3.4-2.105,0-1.9-2.654-2.247-4.036-2.564-2.729-.668-5.139-1.545-5.139-4.744,0-3.475,3.227-5.129,6.378-5.129a6.48,6.48,0,0,1,5.737,2.74Z" fill="#f9c22b"/>
    </g>
  </g>
</svg>
