<svg xmlns="http://www.w3.org/2000/svg" xmlns:xlink="http://www.w3.org/1999/xlink" width="60" height="60" viewBox="0 0 60 60">
  <defs>
    <clipPath id="clip-path">
      <path id="Trazado_52403" data-name="Trazado 52403" d="M982,0h60V60H982Z" fill="#fff"/>
    </clipPath>
    <clipPath id="clip-path-2">
      <rect id="Rectángulo_8725" data-name="Rectángulo 8725" width="48" height="47" transform="translate(985 7)" fill="#fff"/>
    </clipPath>
  </defs>
  <g id="Grupo_15195" data-name="Grupo 15195" transform="translate(-982)" clip-path="url(#clip-path)">
    <g id="Grupo_15194" data-name="Grupo 15194" clip-path="url(#clip-path-2)">
      <path id="Trazado_52398" data-name="Trazado 52398" d="M1026.59,53.354a1.79,1.79,0,0,1-.37-.035l-19.95-3.5a2.154,2.154,0,1,1,.75-4.243l17.95,3.15,3.77-15.827a2.154,2.154,0,0,1,4.19,1l-4.25,17.8A2.13,2.13,0,0,1,1026.59,53.354Z" fill="#495665"/>
      <path id="Trazado_52399" data-name="Trazado 52399" d="M1026.03,52.83a2.163,2.163,0,0,1-1.81-.99l-13.11-20.148a2.153,2.153,0,0,1,3.63-2.315l13.1,20.139a2.149,2.149,0,0,1-.65,2.969A2.1,2.1,0,0,1,1026.03,52.83Z" fill="#495665"/>
      <path id="Trazado_52400" data-name="Trazado 52400" d="M1013.02,32.794H988.543a2.152,2.152,0,1,1,0-4.3h23.177l10.11-18.874a2.152,2.152,0,0,1,3.8,2.023l-10.72,20.01A2.136,2.136,0,0,1,1013.02,32.794Z" fill="#f9c229"/>
      <path id="Trazado_52401" data-name="Trazado 52401" d="M1001.52,47.037a2.161,2.161,0,0,1-1.52-.62L985.638,32.26a2.149,2.149,0,0,1-.069-3L999.94,13.816a2.15,2.15,0,1,1,3.15,2.926L990.155,30.668l12.875,12.686a2.15,2.15,0,0,1-1.51,3.683Z" fill="#495665"/>
      <path id="Trazado_52402" data-name="Trazado 52402" d="M1030.84,28.361a2.131,2.131,0,0,1-2-1.368l-6-15.388-16.72,3.167a2.15,2.15,0,1,1-.8-4.226l18.47-3.511a2.162,2.162,0,0,1,2.42,1.334l6.64,17.058a2.148,2.148,0,0,1-2.01,2.935Z" fill="#495665"/>
    </g>
  </g>
</svg>
