<svg xmlns="http://www.w3.org/2000/svg" xmlns:xlink="http://www.w3.org/1999/xlink" width="60" height="60" viewBox="0 0 60 60">
  <defs>
    <clipPath id="clip-path">
      <path id="Trazado_52410" data-name="Trazado 52410" d="M0,185H60v60H0Z" fill="#fff"/>
    </clipPath>
  </defs>
  <g id="Grupo_15196" data-name="Grupo 15196" transform="translate(0 -185)" clip-path="url(#clip-path)">
    <path id="Trazado_52404" data-name="Trazado 52404" d="M48.568,233H11.432A7.45,7.45,0,0,1,4,225.541V202.456A7.45,7.45,0,0,1,11.432,195H48.568A7.45,7.45,0,0,1,56,202.456v23.076A7.458,7.458,0,0,1,48.568,233ZM11.432,199.375a3.08,3.08,0,0,0-3.071,3.081v23.076a3.08,3.08,0,0,0,3.071,3.081H48.568a3.08,3.08,0,0,0,3.071-3.081V202.456a3.08,3.08,0,0,0-3.071-3.081Z" fill="#495665"/>
    <path id="Trazado_52405" data-name="Trazado 52405" d="M37.646,239H22.354a2.188,2.188,0,0,1,0-4.375H37.646a2.188,2.188,0,0,1,0,4.375Z" fill="#495665"/>
    <path id="Trazado_52406" data-name="Trazado 52406" d="M25.049,210.323H23.732l3.577,10.151,2.006-5.749-1.553-4.411H26.375v-.971h6.141v.971H31.077l3.576,10.151,1.291-3.692c1.692-4.726-1.387-6.205-1.387-7.255a1.9,1.9,0,0,1,1.9-1.908.971.971,0,0,1,.166.009,9.931,9.931,0,0,0-15.109,1.724h3.524Z" fill="#f9c22b"/>
    <path id="Trazado_52407" data-name="Trazado 52407" d="M19.859,214.891a9.98,9.98,0,0,0,5.286,8.821l-4.493-12.733A10.044,10.044,0,0,0,19.859,214.891Z" fill="#f9c22b"/>
    <path id="Trazado_52408" data-name="Trazado 52408" d="M38.466,209.973a7.117,7.117,0,0,1-.122,2.73h.044l-.148.429a8.114,8.114,0,0,1-.332.945L34.479,223.7a10,10,0,0,0,3.986-13.73Z" fill="#f9c22b"/>
    <path id="Trazado_52409" data-name="Trazado 52409" d="M26.742,224.4a9.9,9.9,0,0,0,3.071.481,10.076,10.076,0,0,0,2.931-.438l-2.914-8.252Z" fill="#f9c22b"/>
  </g>
</svg>
